# xmcd
#
# Track frame offsets:
#	150
#	20885
#	43475
#	62479
#	80739
#	96929
#	107049
#	123374
#	143061
#	155802
#	173037
#	192035
#	209067
#	222425
#	233197
#
# Disc length: 3322 seconds
#
# Revision: 0
# Processed by: cddbd v1.5.2PL0 Copyright (c) Steve Scherf et al.
# Submitted via: EasyCDDAExtractor 16.0.6.1
#
DISCID=e40cf80f
DTITLE=Various Artist - Ti Amo 2 The Ultimate Italian Treasures Cd2
DYEAR=2012
DGENRE=Acoustic
TTITLE0=Umberto Tozzi - Non va che volo
TTITLE1=Fausto Leali  - Amore dolce, amore amaro, amore mio
TTITLE2=Loretta Goggi - Maledetta primavera
TTITLE3=Gianni Bella - Non si puo morire dentro
TTITLE4=Renato E I Profeti - Io perche', Io per chi
TTITLE5=Raf  - Inevitabile follia
TTITLE6=Pino Daniele - Quando
TTITLE7=Al Bano and Romina Power - Liberta'
TTITLE8=Pierangelo Bertoli - Eppure Soffia
TTITLE9=Johnny Dorelli - Mamy Blue
TTITLE10=Delirium - Jesabel
TTITLE11=Sergio Caputo - Bimba se sapessi
TTITLE12=Gianni Pettenati - La tramontana
TTITLE13=Piero Focaccia - Stessa spiaggia stesso mare
TTITLE14=Orietta Berti - 15.   - Stasera ti dico di no
EXTD=
EXTT0=
EXTT1=
EXTT2=
EXTT3=
EXTT4=
EXTT5=
EXTT6=
EXTT7=
EXTT8=
EXTT9=
EXTT10=
EXTT11=
EXTT12=
EXTT13=
EXTT14=
PLAYORDER=
